<svg width="46" height="46" viewBox="0 0 46 46" fill="none" xmlns="http://www.w3.org/2000/svg">
<path d="M30.4731 1.10352H15.5797C13.4635 1.10352 11.748 2.82221 11.748 4.94232V10.5391C11.748 12.6592 13.4635 14.3779 15.5797 14.3779H30.4731C32.5892 14.3779 34.3047 12.6592 34.3047 10.5391V4.94232C34.3047 2.82221 32.5892 1.10352 30.4731 1.10352Z" stroke="white" stroke-width="2" stroke-miterlimit="10"/>
<path d="M23.0117 14.3778V43.2633" stroke="white" stroke-width="2" stroke-miterlimit="10"/>
<path d="M28.8227 43.2633H17.2338C16.7325 43.2633 16.3262 43.6702 16.3262 44.1721C16.3262 44.674 16.7325 45.0808 17.2338 45.0808H28.8227C29.324 45.0808 29.7304 44.674 29.7304 44.1721C29.7304 43.6702 29.324 43.2633 28.8227 43.2633Z" stroke="white" stroke-width="1.5" stroke-miterlimit="10"/>
<path d="M27.6523 14.3778V20.9663" stroke="white" stroke-width="2" stroke-miterlimit="10"/>
<path d="M27.6158 23.1647C28.3508 23.1647 28.9465 22.5762 28.9465 21.8502C28.9465 21.1243 28.3508 20.5358 27.6158 20.5358C26.8809 20.5358 26.2852 21.1243 26.2852 21.8502C26.2852 22.5762 26.8809 23.1647 27.6158 23.1647Z" stroke="white" stroke-miterlimit="10"/>
</svg>
