<svg width="46" height="46" viewBox="0 0 46 46" fill="none" xmlns="http://www.w3.org/2000/svg">
<path d="M32.2285 37.4537H39.2714V41.2206C39.2714 41.4718 39.222 41.7205 39.126 41.9526C39.03 42.1847 38.8894 42.3956 38.712 42.5732C38.5347 42.7508 38.3241 42.8917 38.0924 42.9879C37.8607 43.084 37.6124 43.1335 37.3616 43.1335H34.1383C33.8875 43.1335 33.6392 43.084 33.4075 42.9879C33.1757 42.8917 32.9652 42.7508 32.7879 42.5732C32.6105 42.3956 32.4699 42.1847 32.3739 41.9526C32.2779 41.7205 32.2285 41.4718 32.2285 41.2206V37.4537Z" stroke="white" stroke-width="2" stroke-miterlimit="10"/>
<path d="M6.75069 37.2915H13.8253V41.0584C13.8253 41.5657 13.6232 42.0522 13.2634 42.411C12.9037 42.7697 12.4157 42.9712 11.9069 42.9712H8.6684C8.41647 42.9712 8.16701 42.9218 7.93426 42.8256C7.70151 42.7295 7.49002 42.5886 7.31189 42.411C7.13375 42.2333 6.99244 42.0225 6.89603 41.7904C6.79962 41.5583 6.75 41.3096 6.75 41.0584V37.2915H6.75069Z" stroke="white" stroke-width="2" stroke-miterlimit="10"/>
<path d="M35.7313 28.75H10.6777V36.9643H35.7313V28.75Z" stroke="white" stroke-width="2" stroke-miterlimit="10"/>
<path d="M4.57164 17.4935H7.0809C7.93163 17.4935 8.74751 17.8307 9.34907 18.4308C9.95062 19.031 10.2886 19.845 10.2886 20.6937V37.2915H4.71147C3.82383 37.2915 2.97252 36.9398 2.34467 36.3138C1.71682 35.6878 1.36383 34.8387 1.36328 33.9532V20.6937C1.36328 19.845 1.70123 19.031 2.30279 18.4308C2.90434 17.8307 3.72023 17.4935 4.57096 17.4935H4.57164Z" stroke="white" stroke-width="2" stroke-miterlimit="10"/>
<path d="M38.9619 17.4935H41.4622C42.3099 17.4935 43.1229 17.8307 43.7223 18.4307C44.3217 19.0308 44.6585 19.8447 44.6585 20.6934V33.9515C44.6585 34.8373 44.307 35.6868 43.6813 36.3132C43.0556 36.9396 42.207 37.2915 41.3222 37.2915H35.7656V20.6934C35.7656 19.8447 36.1024 19.0308 36.7018 18.4307C37.3012 17.8307 38.1142 17.4935 38.9619 17.4935V17.4935Z" stroke="white" stroke-width="2" stroke-miterlimit="10"/>
<path d="M39.142 17.4936V8.61023C39.142 7.08414 38.5355 5.62055 37.4559 4.54143C36.3764 3.46232 34.9122 2.85608 33.3854 2.85608H12.6582" stroke="white" stroke-width="2" stroke-miterlimit="10"/>
<path d="M6.32813 17.4936V8.61023C6.32804 7.85462 6.47685 7.10639 6.76608 6.40827C7.0553 5.71014 7.47927 5.07581 8.01378 4.54148C8.54828 4.00714 9.18285 3.58328 9.88125 3.2941C10.5796 3.00492 11.3282 2.85608 12.0841 2.85608H32.8119" stroke="white" stroke-width="2" stroke-miterlimit="10"/>
</svg>
