<svg width="46" height="46" viewBox="0 0 46 46" fill="none" xmlns="http://www.w3.org/2000/svg">
<g clip-path="url(#clip0_285:882)">
<path d="M16.2677 29.663V6.41115C16.2675 5.11529 15.752 3.87258 14.8346 2.95635C13.9172 2.04012 12.673 1.52539 11.3757 1.52539V1.52539C10.0785 1.52539 8.83439 2.04014 7.91711 2.95639C6.99983 3.87265 6.4845 5.11536 6.4845 6.41115V29.6851C6.49097 30.8752 6.10208 32.0339 5.37876 32.9796C4.3781 34.269 3.82337 35.8479 3.79792 37.4792C3.72852 41.6687 7.12431 45.1483 11.3216 45.178C12.7416 45.188 14.1359 44.7993 15.3455 44.0562C16.5551 43.313 17.5313 42.2454 18.1629 40.9749C18.7944 39.7044 19.0559 38.2823 18.9176 36.8705C18.7792 35.4588 18.2466 34.1143 17.3803 32.9903C16.6518 32.0344 16.2605 30.8644 16.2677 29.663Z" stroke="white" stroke-width="2" stroke-miterlimit="10"/>
<path d="M16.2285 7.10779H42.2579" stroke="white" stroke-width="2" stroke-miterlimit="10"/>
<path d="M23.1094 14.962H39.11" stroke="white" stroke-width="2" stroke-miterlimit="10"/>
<path d="M23.1094 23.3031H42.2582" stroke="white" stroke-width="2" stroke-miterlimit="10"/>
<path d="M23.1094 32.6179H34.9232" stroke="white" stroke-width="2" stroke-miterlimit="10"/>
<path d="M13.3913 31.076V10.9052H9.29742V31.076C9.30546 32.3992 8.83642 33.6808 7.97664 34.6847C7.4148 35.3321 7.05056 36.1279 6.92734 36.9771C6.80412 37.8264 6.92712 38.6932 7.28169 39.4743C7.63625 40.2553 8.20741 40.9177 8.92706 41.3824C9.64671 41.847 10.4845 42.0944 11.3405 42.095C12.1965 42.0956 13.0346 41.8493 13.7549 41.3857C14.4751 40.922 15.0472 40.2604 15.4028 39.4798C15.7584 38.6992 15.8826 37.8325 15.7605 36.9831C15.6385 36.1338 15.2753 35.3375 14.7143 34.6893C13.8538 33.6838 13.3841 32.4009 13.3913 31.076Z" fill="white"/>
</g>
<defs>
<clipPath id="clip0_285:882">
<rect width="46" height="46" fill="white"/>
</clipPath>
</defs>
</svg>
