<svg width="46" height="46" viewBox="0 0 46 46" fill="none" xmlns="http://www.w3.org/2000/svg">
<path d="M19.4195 29.2539V6.25971C19.4193 4.97821 18.9105 3.74928 18.0048 2.8432C17.0992 1.93712 15.871 1.4281 14.5904 1.4281V1.4281C13.3098 1.4281 12.0817 1.93714 11.1762 2.84325C10.2707 3.74935 9.76203 4.97828 9.76203 6.25971V29.2757C9.76731 30.4518 9.38292 31.5965 8.66898 32.5307C7.68137 33.8062 7.1338 35.3678 7.10845 36.9811C7.03995 41.1242 10.3929 44.5645 14.5354 44.5939C15.9372 44.6038 17.3136 44.2194 18.5077 43.4845C19.7017 42.7496 20.6654 41.6937 21.2888 40.4374C21.9123 39.181 22.1705 37.7746 22.0339 36.3785C21.8973 34.9824 21.3715 33.6528 20.5163 32.5412C19.7983 31.5966 19.4127 30.4407 19.4195 29.2539Z" stroke="white" stroke-width="2" stroke-miterlimit="10"/>
<path d="M23.8223 26.8408C25.9138 26.8408 27.9197 26.0099 29.3987 24.5309C30.8777 23.0519 31.7087 21.0459 31.7089 18.9541" stroke="white" stroke-width="2" stroke-miterlimit="10"/>
<path d="M23.8223 11.0999C24.858 11.0999 25.8835 11.3038 26.8404 11.7002C27.7972 12.0965 28.6666 12.6775 29.399 13.4098C30.1313 14.1422 30.7123 15.0116 31.1086 15.9685C31.5049 16.9253 31.7089 17.9509 31.7089 18.9866" stroke="white" stroke-width="2" stroke-miterlimit="10"/>
<path d="M16.5961 30.2934V10.3534H12.5484V30.2934C12.5564 31.6014 12.0924 32.8683 11.242 33.8608C10.6863 34.5008 10.3261 35.2874 10.2042 36.1269C10.0823 36.9664 10.204 37.8233 10.5547 38.5955C10.9054 39.3676 11.4703 40.0224 12.1821 40.4818C12.8939 40.9411 13.7225 41.1857 14.5692 41.1862C15.4158 41.1868 16.2448 40.9434 16.9572 40.485C17.6696 40.0266 18.2355 39.3726 18.5872 38.6009C18.9389 37.8293 19.0618 36.9725 18.941 36.1329C18.8203 35.2932 18.4611 34.5061 17.9062 33.8653C17.0546 32.8715 16.5894 31.6032 16.5961 30.2934Z" fill="white"/>
<path d="M24.6328 3.66748V7.75689" stroke="white" stroke-width="2" stroke-miterlimit="10"/>
<path d="M38.9148 18.9541H34.793" stroke="white" stroke-width="2" stroke-miterlimit="10"/>
<path d="M35.5714 8.63318L32.6504 11.5542" stroke="white" stroke-width="2" stroke-miterlimit="10"/>
<path d="M34.2733 30.5083L31.3848 27.6198" stroke="white" stroke-width="2" stroke-miterlimit="10"/>
</svg>
