<svg width="370" height="74" viewBox="0 0 370 74" fill="none" xmlns="http://www.w3.org/2000/svg">
<circle cx="23.0537" cy="22.0537" r="21.7245" stroke="white" stroke-width="0.658318"/>
<circle cx="77.038" cy="22.0537" r="21.7245" stroke="white" stroke-width="0.658318"/>
<circle cx="131.015" cy="22.0537" r="21.7245" stroke="white" stroke-width="0.658318"/>
<circle cx="184.999" cy="22.0537" r="21.7245" stroke="white" stroke-width="0.658318"/>
<circle cx="238.983" cy="22.0537" r="21.7245" stroke="white" stroke-width="0.658318"/>
<circle cx="292.964" cy="22.0537" r="22.0537" fill="white"/>
<circle cx="346.944" cy="22.0537" r="22.0537" fill="white"/>
<path d="M21.1448 16.5338V27.4829H18.68V18.6193H14.6037V27.4829H12.139V16.5338H21.1448ZM31.5483 16.5338H34.0131V27.4829H31.5483V22.8378H27.4088V27.4829H24.9441V16.5338H27.4088V20.7207H31.5483V16.5338Z" fill="white"/>
<path d="M70.4293 27.6251C69.8289 27.6251 69.2285 27.604 68.6282 27.5619C68.0383 27.5303 67.4221 27.446 66.7796 27.3091V16.6918C67.2852 16.597 67.8382 16.5285 68.4386 16.4864C69.0389 16.4337 69.5972 16.4074 70.1133 16.4074C70.8085 16.4074 71.4458 16.46 72.0251 16.5654C72.6149 16.6602 73.1205 16.8287 73.5418 17.071C73.9632 17.3132 74.2897 17.6345 74.5214 18.0347C74.7637 18.4245 74.8848 18.909 74.8848 19.4883C74.8848 20.3625 74.4635 21.0525 73.6208 21.558C74.316 21.8214 74.79 22.1795 75.0428 22.6324C75.2956 23.0853 75.422 23.5962 75.422 24.165C75.422 25.3131 75.0007 26.1768 74.158 26.7561C73.3259 27.3354 72.083 27.6251 70.4293 27.6251ZM69.1811 22.7114V25.5396C69.3602 25.5606 69.5551 25.5764 69.7657 25.587C69.9764 25.5975 70.2081 25.6028 70.4609 25.6028C71.1982 25.6028 71.7933 25.4974 72.2463 25.2868C72.6992 25.0761 72.9257 24.6864 72.9257 24.1176C72.9257 23.612 72.7361 23.2539 72.3569 23.0432C71.9777 22.822 71.4352 22.7114 70.7295 22.7114H69.1811ZM69.1811 20.8313H70.3819C71.1403 20.8313 71.6827 20.7365 72.0093 20.5469C72.3358 20.3467 72.4991 20.0307 72.4991 19.5989C72.4991 19.1565 72.3305 18.8458 71.9935 18.6667C71.6564 18.4877 71.1614 18.3981 70.5083 18.3981C70.2976 18.3981 70.0712 18.4034 69.8289 18.4139C69.5867 18.4139 69.3707 18.4245 69.1811 18.4455V20.8313ZM86.5022 16.5338V18.6351H83.2001V27.4829H80.7354V18.6351H77.4332V16.5338H86.5022Z" fill="white"/>
<path d="M126.413 27.7041C124.633 27.7041 123.274 27.209 122.337 26.2189C121.41 25.2288 120.946 23.8227 120.946 22.0004C120.946 21.0946 121.088 20.2888 121.373 19.5831C121.657 18.8668 122.047 18.2665 122.542 17.7819C123.037 17.2869 123.627 16.913 124.312 16.6602C124.996 16.4074 125.739 16.281 126.539 16.281C127.003 16.281 127.424 16.3178 127.803 16.3916C128.182 16.4548 128.514 16.5338 128.799 16.6286C129.083 16.7128 129.32 16.8024 129.51 16.8972C129.699 16.992 129.836 17.0657 129.92 17.1183L129.209 19.1091C128.872 18.93 128.477 18.7773 128.024 18.6509C127.582 18.5245 127.076 18.4613 126.508 18.4613C126.129 18.4613 125.755 18.5245 125.386 18.6509C125.028 18.7773 124.707 18.9827 124.422 19.2671C124.148 19.541 123.927 19.8991 123.759 20.3415C123.59 20.7839 123.506 21.3211 123.506 21.953C123.506 22.4586 123.558 22.9326 123.664 23.375C123.78 23.8069 123.959 24.1808 124.201 24.4968C124.454 24.8128 124.78 25.0656 125.181 25.2552C125.581 25.4342 126.065 25.5238 126.634 25.5238C126.992 25.5238 127.313 25.5027 127.598 25.4606C127.882 25.4184 128.135 25.371 128.356 25.3184C128.577 25.2552 128.772 25.1867 128.941 25.113C129.109 25.0392 129.262 24.9708 129.399 24.9076L130.078 26.8825C129.731 27.0932 129.241 27.2828 128.609 27.4513C127.977 27.6198 127.245 27.7041 126.413 27.7041ZM136.216 16.4074C137.848 16.4074 139.102 16.697 139.976 17.2763C140.85 17.8451 141.287 18.7826 141.287 20.0887C141.287 21.4053 140.845 22.3586 139.96 22.9484C139.075 23.5277 137.811 23.8174 136.168 23.8174H135.394V27.4829H132.929V16.6918C133.466 16.5864 134.035 16.5127 134.636 16.4706C135.236 16.4284 135.763 16.4074 136.216 16.4074ZM136.374 18.5087C136.195 18.5087 136.015 18.514 135.836 18.5245C135.668 18.5351 135.52 18.5456 135.394 18.5561V21.716H136.168C137.021 21.716 137.664 21.6002 138.096 21.3685C138.528 21.1367 138.744 20.7049 138.744 20.0729C138.744 19.7674 138.686 19.5146 138.57 19.3145C138.464 19.1144 138.306 18.9564 138.096 18.8405C137.896 18.7141 137.648 18.6298 137.353 18.5877C137.058 18.5351 136.732 18.5087 136.374 18.5087Z" fill="white"/>
<path d="M176.577 19.7569C176.577 20.1887 176.63 20.5416 176.735 20.8155C176.841 21.0788 176.988 21.2895 177.178 21.4474C177.378 21.6054 177.615 21.716 177.889 21.7792C178.162 21.8319 178.463 21.8582 178.789 21.8582C179.042 21.8582 179.311 21.8477 179.595 21.8266C179.89 21.8056 180.19 21.774 180.496 21.7318V16.5338H182.96V27.4829H180.496V23.8174C180.137 23.8595 179.79 23.8911 179.453 23.9122C179.116 23.9333 178.794 23.9438 178.489 23.9438C177.825 23.9438 177.22 23.8859 176.672 23.77C176.135 23.6436 175.677 23.4277 175.297 23.1222C174.918 22.8062 174.623 22.3902 174.413 21.874C174.213 21.3474 174.112 20.6838 174.112 19.8833V16.5338H176.577V19.7569ZM194.868 16.5338V18.6351H191.566V27.4829H189.101V18.6351H185.799V16.5338H194.868Z" fill="white"/>
<path d="M237.731 16.5338V27.4829H235.266V18.6193H231.19V27.4829H228.725V16.5338H237.731ZM249.651 16.5338V18.6351H246.349V27.4829H243.884V18.6351H240.582V16.5338H249.651Z" fill="white"/>
<path d="M287.702 27.7041C285.922 27.7041 284.563 27.209 283.626 26.2189C282.699 25.2288 282.235 23.8227 282.235 22.0004C282.235 21.0946 282.377 20.2888 282.662 19.5831C282.946 18.8668 283.336 18.2665 283.831 17.7819C284.326 17.2869 284.916 16.913 285.601 16.6602C286.285 16.4074 287.028 16.281 287.828 16.281C288.292 16.281 288.713 16.3178 289.092 16.3916C289.472 16.4548 289.803 16.5338 290.088 16.6286C290.372 16.7128 290.609 16.8024 290.799 16.8972C290.988 16.992 291.125 17.0657 291.209 17.1183L290.499 19.1091C290.161 18.93 289.766 18.7773 289.314 18.6509C288.871 18.5245 288.366 18.4613 287.797 18.4613C287.418 18.4613 287.044 18.5245 286.675 18.6509C286.317 18.7773 285.996 18.9827 285.711 19.2671C285.437 19.541 285.216 19.8991 285.048 20.3415C284.879 20.7839 284.795 21.3211 284.795 21.953C284.795 22.4586 284.848 22.9326 284.953 23.375C285.069 23.8069 285.248 24.1808 285.49 24.4968C285.743 24.8128 286.069 25.0656 286.47 25.2552C286.87 25.4342 287.354 25.5238 287.923 25.5238C288.281 25.5238 288.603 25.5027 288.887 25.4606C289.171 25.4184 289.424 25.371 289.645 25.3184C289.867 25.2552 290.061 25.1867 290.23 25.113C290.398 25.0392 290.551 24.9708 290.688 24.9076L291.367 26.8825C291.02 27.0932 290.53 27.2828 289.898 27.4513C289.266 27.6198 288.534 27.7041 287.702 27.7041ZM296.572 18.6193V20.4205H297.378C298.189 20.4205 298.911 20.4837 299.543 20.6101C300.185 20.7365 300.723 20.9419 301.154 21.2263C301.597 21.5106 301.934 21.8793 302.166 22.3322C302.397 22.7852 302.513 23.3381 302.513 23.9912C302.513 25.2025 302.071 26.1083 301.186 26.7087C300.312 27.2986 299.058 27.5935 297.426 27.5935C296.983 27.5935 296.478 27.5672 295.909 27.5145C295.351 27.4618 294.787 27.367 294.218 27.2301V16.5338H301.486V18.6193H296.572ZM297.552 25.4922C297.879 25.4922 298.189 25.4711 298.484 25.429C298.779 25.3868 299.037 25.3131 299.258 25.2078C299.49 25.0919 299.674 24.9392 299.811 24.7496C299.948 24.56 300.017 24.3125 300.017 24.007C300.017 23.691 299.954 23.4329 299.827 23.2328C299.701 23.0327 299.522 22.8747 299.29 22.7588C299.058 22.643 298.774 22.564 298.437 22.5218C298.1 22.4797 297.721 22.4586 297.299 22.4586H296.572V25.4606C296.688 25.4711 296.825 25.4816 296.983 25.4922C297.152 25.4922 297.341 25.4922 297.552 25.4922Z" fill="black"/>
<path d="M340.339 27.6251C339.739 27.6251 339.139 27.604 338.538 27.5619C337.948 27.5303 337.332 27.446 336.69 27.3091V16.6918C337.195 16.597 337.748 16.5285 338.349 16.4864C338.949 16.4337 339.507 16.4074 340.023 16.4074C340.719 16.4074 341.356 16.46 341.935 16.5654C342.525 16.6602 343.031 16.8287 343.452 17.071C343.873 17.3132 344.2 17.6345 344.432 18.0347C344.674 18.4245 344.795 18.909 344.795 19.4883C344.795 20.3625 344.374 21.0525 343.531 21.558C344.226 21.8214 344.7 22.1795 344.953 22.6324C345.206 23.0853 345.332 23.5962 345.332 24.165C345.332 25.3131 344.911 26.1768 344.068 26.7561C343.236 27.3354 341.993 27.6251 340.339 27.6251ZM339.091 22.7114V25.5396C339.27 25.5606 339.465 25.5764 339.676 25.587C339.887 25.5975 340.118 25.6028 340.371 25.6028C341.108 25.6028 341.704 25.4974 342.156 25.2868C342.609 25.0761 342.836 24.6864 342.836 24.1176C342.836 23.612 342.646 23.2539 342.267 23.0432C341.888 22.822 341.345 22.7114 340.64 22.7114H339.091ZM339.091 20.8313H340.292C341.05 20.8313 341.593 20.7365 341.919 20.5469C342.246 20.3467 342.409 20.0307 342.409 19.5989C342.409 19.1565 342.241 18.8458 341.904 18.6667C341.567 18.4877 341.072 18.3981 340.418 18.3981C340.208 18.3981 339.981 18.4034 339.739 18.4139C339.497 18.4139 339.281 18.4245 339.091 18.4455V20.8313ZM353.562 27.7041C351.782 27.7041 350.423 27.209 349.485 26.2189C348.559 25.2288 348.095 23.8227 348.095 22.0004C348.095 21.0946 348.237 20.2888 348.522 19.5831C348.806 18.8668 349.196 18.2665 349.691 17.7819C350.186 17.2869 350.776 16.913 351.46 16.6602C352.145 16.4074 352.888 16.281 353.688 16.281C354.152 16.281 354.573 16.3178 354.952 16.3916C355.331 16.4548 355.663 16.5338 355.948 16.6286C356.232 16.7128 356.469 16.8024 356.659 16.8972C356.848 16.992 356.985 17.0657 357.069 17.1183L356.358 19.1091C356.021 18.93 355.626 18.7773 355.173 18.6509C354.731 18.5245 354.225 18.4613 353.657 18.4613C353.277 18.4613 352.903 18.5245 352.535 18.6509C352.177 18.7773 351.855 18.9827 351.571 19.2671C351.297 19.541 351.076 19.8991 350.907 20.3415C350.739 20.7839 350.655 21.3211 350.655 21.953C350.655 22.4586 350.707 22.9326 350.813 23.375C350.929 23.8069 351.108 24.1808 351.35 24.4968C351.603 24.8128 351.929 25.0656 352.329 25.2552C352.73 25.4342 353.214 25.5238 353.783 25.5238C354.141 25.5238 354.462 25.5027 354.747 25.4606C355.031 25.4184 355.284 25.371 355.505 25.3184C355.726 25.2552 355.921 25.1867 356.09 25.113C356.258 25.0392 356.411 24.9708 356.548 24.9076L357.227 26.8825C356.88 27.0932 356.39 27.2828 355.758 27.4513C355.126 27.6198 354.394 27.7041 353.562 27.7041Z" fill="black"/>
<path d="M93.4844 66.0084C93.4844 67.5445 93.1903 68.7251 92.6023 69.5502C92.0229 70.3665 91.2198 70.7747 90.1928 70.7747C89.1658 70.7747 88.3583 70.3665 87.7702 69.5502C87.1909 68.7251 86.9012 67.5445 86.9012 66.0084C86.9012 65.2448 86.9758 64.5689 87.125 63.9808C87.283 63.3927 87.5069 62.8968 87.7965 62.493C88.0862 62.0893 88.4329 61.782 88.8367 61.5714C89.2404 61.3607 89.6925 61.2554 90.1928 61.2554C91.2198 61.2554 92.0229 61.6679 92.6023 62.493C93.1903 63.3093 93.4844 64.4811 93.4844 66.0084ZM91.4831 66.0084C91.4831 65.552 91.4612 65.1395 91.4173 64.7708C91.3734 64.3934 91.3032 64.0686 91.2066 63.7965C91.1101 63.5244 90.9784 63.3137 90.8116 63.1645C90.6449 63.0153 90.4386 62.9407 90.1928 62.9407C89.947 62.9407 89.7408 63.0153 89.574 63.1645C89.416 63.3137 89.2843 63.5244 89.179 63.7965C89.0824 64.0686 89.0122 64.3934 88.9683 64.7708C88.9244 65.1395 88.9025 65.552 88.9025 66.0084C88.9025 66.4649 88.9244 66.8818 88.9683 67.2592C89.0122 67.6367 89.0824 67.9614 89.179 68.2336C89.2843 68.5057 89.416 68.7163 89.574 68.8655C89.7408 69.0148 89.947 69.0894 90.1928 69.0894C90.4386 69.0894 90.6449 69.0148 90.8116 68.8655C90.9784 68.7163 91.1101 68.5057 91.2066 68.2336C91.3032 67.9614 91.3734 67.6367 91.4173 67.2592C91.4612 66.8818 91.4831 66.4649 91.4831 66.0084ZM98.7952 65.6924C98.9971 65.6924 99.2077 65.6749 99.4272 65.6398C99.6466 65.5959 99.809 65.5388 99.9143 65.4686V65.3501C99.9143 65.315 99.9143 65.2799 99.9143 65.2448C99.9231 65.2097 99.9275 65.179 99.9275 65.1526C99.9187 64.8366 99.8924 64.5426 99.8485 64.2705C99.8046 63.9896 99.73 63.7482 99.6247 63.5463C99.5193 63.3357 99.3745 63.1733 99.1902 63.0592C99.0146 62.9363 98.7952 62.8748 98.5318 62.8748C98.3212 62.8748 98.1369 62.9187 97.9789 63.0065C97.8209 63.0943 97.6936 63.2084 97.597 63.3488C97.5005 63.4893 97.4259 63.6429 97.3732 63.8097C97.3293 63.9764 97.3074 64.1388 97.3074 64.2968C97.3074 64.7708 97.4215 65.1219 97.6497 65.3501C97.8867 65.5783 98.2685 65.6924 98.7952 65.6924ZM99.7563 66.9696C99.572 67.0574 99.3657 67.1232 99.1375 67.1671C98.9181 67.2022 98.7293 67.2197 98.5713 67.2197C98.0008 67.2197 97.5136 67.1539 97.1099 67.0222C96.7061 66.8818 96.3726 66.6887 96.1092 66.4429C95.8547 66.1884 95.666 65.8856 95.5431 65.5344C95.4202 65.1833 95.3588 64.7971 95.3588 64.3758C95.3588 64.0247 95.4158 63.6648 95.5299 63.2962C95.6528 62.9275 95.8415 62.594 96.0961 62.2955C96.3506 61.9883 96.671 61.7381 97.0572 61.545C97.4522 61.3432 97.9262 61.2422 98.4792 61.2422C99.6115 61.2422 100.463 61.5933 101.033 62.2955C101.613 62.989 101.902 63.9896 101.902 65.2975C101.902 66.1577 101.788 66.9169 101.56 67.5752C101.341 68.2336 100.994 68.7865 100.52 69.2342C100.055 69.6819 99.4579 70.0242 98.7293 70.2612C98.0008 70.4894 97.1362 70.6079 96.1356 70.6167C96.1268 70.3358 96.1136 70.0637 96.0961 69.8004C96.0785 69.537 96.061 69.2649 96.0434 68.984C96.5437 68.9753 96.9958 68.9401 97.3995 68.8787C97.8033 68.8085 98.1588 68.6988 98.466 68.5495C98.7732 68.3915 99.0322 68.1853 99.2428 67.9307C99.4623 67.6762 99.6334 67.3558 99.7563 66.9696ZM106.371 64.8761C106.371 65.2711 106.243 65.5739 105.989 65.7846C105.743 65.9865 105.462 66.0874 105.146 66.0874C104.83 66.0874 104.545 65.9865 104.29 65.7846C104.045 65.5739 103.922 65.2711 103.922 64.8761C103.922 64.4811 104.045 64.1827 104.29 63.9808C104.545 63.7702 104.83 63.6648 105.146 63.6648C105.462 63.6648 105.743 63.7702 105.989 63.9808C106.243 64.1827 106.371 64.4811 106.371 64.8761ZM106.371 69.5502C106.371 69.9452 106.243 70.248 105.989 70.4587C105.743 70.6606 105.462 70.7615 105.146 70.7615C104.83 70.7615 104.545 70.6606 104.29 70.4587C104.045 70.248 103.922 69.9452 103.922 69.5502C103.922 69.1552 104.045 68.8568 104.29 68.6549C104.545 68.4442 104.83 68.3389 105.146 68.3389C105.462 68.3389 105.743 68.4442 105.989 68.6549C106.243 68.8568 106.371 69.1552 106.371 69.5502ZM114.851 66.0084C114.851 67.5445 114.557 68.7251 113.969 69.5502C113.389 70.3665 112.586 70.7747 111.559 70.7747C110.532 70.7747 109.725 70.3665 109.137 69.5502C108.557 68.7251 108.268 67.5445 108.268 66.0084C108.268 65.2448 108.342 64.5689 108.492 63.9808C108.65 63.3927 108.873 62.8968 109.163 62.493C109.453 62.0893 109.799 61.782 110.203 61.5714C110.607 61.3607 111.059 61.2554 111.559 61.2554C112.586 61.2554 113.389 61.6679 113.969 62.493C114.557 63.3093 114.851 64.4811 114.851 66.0084ZM112.85 66.0084C112.85 65.552 112.828 65.1395 112.784 64.7708C112.74 64.3934 112.67 64.0686 112.573 63.7965C112.477 63.5244 112.345 63.3137 112.178 63.1645C112.011 63.0153 111.805 62.9407 111.559 62.9407C111.314 62.9407 111.107 63.0153 110.941 63.1645C110.783 63.3137 110.651 63.5244 110.546 63.7965C110.449 64.0686 110.379 64.3934 110.335 64.7708C110.291 65.1395 110.269 65.552 110.269 66.0084C110.269 66.4649 110.291 66.8818 110.335 67.2592C110.379 67.6367 110.449 67.9614 110.546 68.2336C110.651 68.5057 110.783 68.7163 110.941 68.8655C111.107 69.0148 111.314 69.0894 111.559 69.0894C111.805 69.0894 112.011 69.0148 112.178 68.8655C112.345 68.7163 112.477 68.5057 112.573 68.2336C112.67 67.9614 112.74 67.6367 112.784 67.2592C112.828 66.8818 112.85 66.4649 112.85 66.0084ZM123.387 66.0084C123.387 67.5445 123.093 68.7251 122.505 69.5502C121.926 70.3665 121.123 70.7747 120.096 70.7747C119.069 70.7747 118.261 70.3665 117.673 69.5502C117.094 68.7251 116.804 67.5445 116.804 66.0084C116.804 65.2448 116.879 64.5689 117.028 63.9808C117.186 63.3927 117.41 62.8968 117.7 62.493C117.989 62.0893 118.336 61.782 118.74 61.5714C119.144 61.3607 119.596 61.2554 120.096 61.2554C121.123 61.2554 121.926 61.6679 122.505 62.493C123.093 63.3093 123.387 64.4811 123.387 66.0084ZM121.386 66.0084C121.386 65.552 121.364 65.1395 121.32 64.7708C121.276 64.3934 121.206 64.0686 121.11 63.7965C121.013 63.5244 120.881 63.3137 120.715 63.1645C120.548 63.0153 120.342 62.9407 120.096 62.9407C119.85 62.9407 119.644 63.0153 119.477 63.1645C119.319 63.3137 119.187 63.5244 119.082 63.7965C118.986 64.0686 118.915 64.3934 118.871 64.7708C118.828 65.1395 118.806 65.552 118.806 66.0084C118.806 66.4649 118.828 66.8818 118.871 67.2592C118.915 67.6367 118.986 67.9614 119.082 68.2336C119.187 68.5057 119.319 68.7163 119.477 68.8655C119.644 69.0148 119.85 69.0894 120.096 69.0894C120.342 69.0894 120.548 69.0148 120.715 68.8655C120.881 68.7163 121.013 68.5057 121.11 68.2336C121.206 67.9614 121.276 67.6367 121.32 67.2592C121.364 66.8818 121.386 66.4649 121.386 66.0084ZM129.439 65.7714H133.257V67.5489H129.439V65.7714ZM139.775 63.362C140.03 63.2567 140.293 63.1382 140.565 63.0065C140.846 62.8661 141.118 62.7168 141.382 62.5589C141.645 62.3921 141.895 62.2209 142.132 62.0454C142.378 61.861 142.597 61.6679 142.79 61.466H144.16V70.5903H142.198V64.0203C141.935 64.1959 141.641 64.3583 141.316 64.5075C140.991 64.6479 140.675 64.7708 140.368 64.8761L139.775 63.362ZM154.368 68.0492C154.368 68.4442 154.298 68.8085 154.158 69.142C154.026 69.4668 153.824 69.7521 153.552 69.9978C153.28 70.2436 152.938 70.4367 152.525 70.5772C152.121 70.7088 151.652 70.7747 151.116 70.7747C150.502 70.7747 149.988 70.6913 149.576 70.5245C149.172 70.3489 148.843 70.1339 148.588 69.8793C148.343 69.6248 148.167 69.3483 148.062 69.0499C147.956 68.7427 147.904 68.4618 147.904 68.2072C147.904 67.9439 147.939 67.7025 148.009 67.4831C148.079 67.2636 148.176 67.0661 148.299 66.8906C148.422 66.7063 148.558 66.5395 148.707 66.3903C148.865 66.241 149.032 66.1006 149.207 65.9689C148.83 65.6617 148.549 65.3589 148.364 65.0605C148.189 64.762 148.101 64.3802 148.101 63.915C148.101 63.5639 148.171 63.2259 148.312 62.9012C148.461 62.5764 148.667 62.2955 148.931 62.0585C149.194 61.8128 149.51 61.6197 149.879 61.4792C150.256 61.33 150.673 61.2554 151.129 61.2554C151.665 61.2554 152.121 61.3344 152.499 61.4924C152.885 61.6416 153.201 61.8347 153.447 62.0717C153.692 62.3087 153.868 62.5764 153.973 62.8748C154.087 63.1645 154.145 63.4542 154.145 63.7438C154.145 64.1651 154.03 64.5601 153.802 64.9288C153.583 65.2887 153.306 65.5739 152.973 65.7846C153.473 66.1094 153.829 66.4517 154.039 66.8116C154.259 67.1627 154.368 67.5752 154.368 68.0492ZM149.813 68.1282C149.813 68.2336 149.835 68.3521 149.879 68.4837C149.931 68.6066 150.01 68.7207 150.116 68.826C150.221 68.9314 150.357 69.0191 150.524 69.0894C150.691 69.1596 150.892 69.1947 151.129 69.1947C151.586 69.1947 151.919 69.085 152.13 68.8655C152.341 68.6461 152.446 68.4003 152.446 68.1282C152.446 67.9263 152.398 67.7464 152.301 67.5884C152.213 67.4304 152.091 67.2944 151.933 67.1802C151.775 67.0574 151.586 66.952 151.366 66.8643C151.156 66.7677 150.928 66.6799 150.682 66.6009C150.436 66.7853 150.23 67.0003 150.063 67.2461C149.896 67.4918 149.813 67.7859 149.813 68.1282ZM152.249 63.7965C152.249 63.6999 152.227 63.599 152.183 63.4937C152.148 63.3796 152.082 63.2742 151.985 63.1777C151.897 63.0811 151.783 63.0021 151.643 62.9407C151.502 62.8705 151.331 62.8353 151.129 62.8353C150.936 62.8353 150.77 62.8661 150.629 62.9275C150.489 62.989 150.37 63.0723 150.274 63.1777C150.186 63.2742 150.12 63.3796 150.076 63.4937C150.032 63.6078 150.01 63.7175 150.01 63.8228C150.01 64.1037 150.111 64.367 150.313 64.6128C150.524 64.8586 150.879 65.0692 151.38 65.2448C151.66 65.0692 151.876 64.8674 152.025 64.6391C152.174 64.4109 152.249 64.13 152.249 63.7965ZM158.771 64.8761C158.771 65.2711 158.643 65.5739 158.389 65.7846C158.143 65.9865 157.862 66.0874 157.546 66.0874C157.23 66.0874 156.945 65.9865 156.69 65.7846C156.445 65.5739 156.322 65.2711 156.322 64.8761C156.322 64.4811 156.445 64.1827 156.69 63.9808C156.945 63.7702 157.23 63.6648 157.546 63.6648C157.862 63.6648 158.143 63.7702 158.389 63.9808C158.643 64.1827 158.771 64.4811 158.771 64.8761ZM158.771 69.5502C158.771 69.9452 158.643 70.248 158.389 70.4587C158.143 70.6606 157.862 70.7615 157.546 70.7615C157.23 70.7615 156.945 70.6606 156.69 70.4587C156.445 70.248 156.322 69.9452 156.322 69.5502C156.322 69.1552 156.445 68.8568 156.69 68.6549C156.945 68.4442 157.23 68.3389 157.546 68.3389C157.862 68.3389 158.143 68.4442 158.389 68.6549C158.643 68.8568 158.771 69.1552 158.771 69.5502ZM167.251 66.0084C167.251 67.5445 166.957 68.7251 166.369 69.5502C165.79 70.3665 164.986 70.7747 163.959 70.7747C162.932 70.7747 162.125 70.3665 161.537 69.5502C160.957 68.7251 160.668 67.5445 160.668 66.0084C160.668 65.2448 160.742 64.5689 160.892 63.9808C161.05 63.3927 161.273 62.8968 161.563 62.493C161.853 62.0893 162.2 61.782 162.603 61.5714C163.007 61.3607 163.459 61.2554 163.959 61.2554C164.986 61.2554 165.79 61.6679 166.369 62.493C166.957 63.3093 167.251 64.4811 167.251 66.0084ZM165.25 66.0084C165.25 65.552 165.228 65.1395 165.184 64.7708C165.14 64.3934 165.07 64.0686 164.973 63.7965C164.877 63.5244 164.745 63.3137 164.578 63.1645C164.411 63.0153 164.205 62.9407 163.959 62.9407C163.714 62.9407 163.507 63.0153 163.341 63.1645C163.183 63.3137 163.051 63.5244 162.946 63.7965C162.849 64.0686 162.779 64.3934 162.735 64.7708C162.691 65.1395 162.669 65.552 162.669 66.0084C162.669 66.4649 162.691 66.8818 162.735 67.2592C162.779 67.6367 162.849 67.9614 162.946 68.2336C163.051 68.5057 163.183 68.7163 163.341 68.8655C163.507 69.0148 163.714 69.0894 163.959 69.0894C164.205 69.0894 164.411 69.0148 164.578 68.8655C164.745 68.7163 164.877 68.5057 164.973 68.2336C165.07 67.9614 165.14 67.6367 165.184 67.2592C165.228 66.8818 165.25 66.4649 165.25 66.0084ZM175.788 66.0084C175.788 67.5445 175.493 68.7251 174.905 69.5502C174.326 70.3665 173.523 70.7747 172.496 70.7747C171.469 70.7747 170.661 70.3665 170.073 69.5502C169.494 68.7251 169.204 67.5445 169.204 66.0084C169.204 65.2448 169.279 64.5689 169.428 63.9808C169.586 63.3927 169.81 62.8968 170.1 62.493C170.389 62.0893 170.736 61.782 171.14 61.5714C171.544 61.3607 171.996 61.2554 172.496 61.2554C173.523 61.2554 174.326 61.6679 174.905 62.493C175.493 63.3093 175.788 64.4811 175.788 66.0084ZM173.786 66.0084C173.786 65.552 173.764 65.1395 173.72 64.7708C173.677 64.3934 173.606 64.0686 173.51 63.7965C173.413 63.5244 173.282 63.3137 173.115 63.1645C172.948 63.0153 172.742 62.9407 172.496 62.9407C172.25 62.9407 172.044 63.0153 171.877 63.1645C171.719 63.3137 171.587 63.5244 171.482 63.7965C171.386 64.0686 171.315 64.3934 171.271 64.7708C171.228 65.1395 171.206 65.552 171.206 66.0084C171.206 66.4649 171.228 66.8818 171.271 67.2592C171.315 67.6367 171.386 67.9614 171.482 68.2336C171.587 68.5057 171.719 68.7163 171.877 68.8655C172.044 69.0148 172.25 69.0894 172.496 69.0894C172.742 69.0894 172.948 69.0148 173.115 68.8655C173.282 68.7163 173.413 68.5057 173.51 68.2336C173.606 67.9614 173.677 67.6367 173.72 67.2592C173.764 66.8818 173.786 66.4649 173.786 66.0084Z" fill="white"/>
<path d="M293.265 69.0018C292.865 69.0018 292.465 68.9877 292.065 68.9596C291.671 68.9386 291.261 68.8824 290.832 68.7911V61.7129C291.169 61.6497 291.538 61.604 291.938 61.576C292.338 61.5408 292.711 61.5233 293.055 61.5233C293.518 61.5233 293.943 61.5584 294.329 61.6286C294.722 61.6918 295.059 61.8042 295.34 61.9657C295.621 62.1272 295.839 62.3414 295.993 62.6082C296.155 62.868 296.236 63.191 296.236 63.5772C296.236 64.1601 295.955 64.62 295.393 64.9571C295.856 65.1326 296.172 65.3714 296.341 65.6733C296.509 65.9753 296.594 66.3158 296.594 66.695C296.594 67.4604 296.313 68.0362 295.751 68.4225C295.196 68.8087 294.368 69.0018 293.265 69.0018ZM292.433 65.726V67.6114C292.553 67.6255 292.682 67.636 292.823 67.643C292.963 67.65 293.118 67.6535 293.286 67.6535C293.778 67.6535 294.175 67.5833 294.477 67.4429C294.779 67.3024 294.93 67.0426 294.93 66.6634C294.93 66.3264 294.803 66.0876 294.55 65.9472C294.298 65.7997 293.936 65.726 293.465 65.726H292.433ZM292.433 64.4726H293.234C293.739 64.4726 294.101 64.4094 294.319 64.283C294.536 64.1495 294.645 63.9389 294.645 63.651C294.645 63.356 294.533 63.1489 294.308 63.0295C294.083 62.9101 293.753 62.8505 293.318 62.8505C293.178 62.8505 293.027 62.854 292.865 62.861C292.704 62.861 292.56 62.868 292.433 62.8821V64.4726ZM305.851 68.907H304.282V63.3666H305.851V68.907ZM300.995 67.8115C301.283 67.8115 301.508 67.7589 301.669 67.6535C301.838 67.5412 301.922 67.3621 301.922 67.1164C301.922 66.99 301.894 66.8846 301.838 66.8004C301.782 66.7091 301.705 66.6389 301.606 66.5897C301.508 66.5335 301.392 66.4949 301.259 66.4738C301.132 66.4528 300.995 66.4422 300.848 66.4422C300.742 66.4422 300.627 66.4493 300.5 66.4633C300.374 66.4773 300.279 66.4914 300.216 66.5054V67.7694C300.3 67.7835 300.412 67.794 300.553 67.801C300.693 67.808 300.841 67.8115 300.995 67.8115ZM300.216 65.3363C300.314 65.3082 300.441 65.2871 300.595 65.2731C300.757 65.252 300.939 65.2415 301.143 65.2415C301.466 65.2415 301.768 65.2801 302.049 65.3573C302.336 65.4346 302.586 65.5539 302.796 65.7155C303.007 65.8699 303.172 66.0701 303.291 66.3158C303.418 66.5546 303.481 66.8355 303.481 67.1585C303.481 67.4815 303.425 67.7624 303.313 68.0011C303.2 68.2329 303.039 68.426 302.828 68.5805C302.617 68.7279 302.365 68.8368 302.07 68.907C301.782 68.9842 301.459 69.0228 301.101 69.0228C300.637 69.0228 300.212 68.9983 299.826 68.9491C299.44 68.907 299.047 68.8368 298.646 68.7385V63.3666H300.216V65.3363ZM310.372 65.0519L311.467 63.3666H313.09L311.194 66.0314C311.615 66.5581 311.998 67.0707 312.342 67.5693C312.686 68.0678 312.96 68.5137 313.163 68.907H311.478C311.422 68.8017 311.352 68.6717 311.267 68.5173C311.183 68.3558 311.088 68.1907 310.983 68.0222C310.878 67.8467 310.765 67.6746 310.646 67.5061C310.534 67.3305 310.421 67.1725 310.309 67.0321C310.204 67.1655 310.095 67.313 309.982 67.4745C309.877 67.636 309.775 67.801 309.677 67.9695C309.579 68.131 309.48 68.2926 309.382 68.4541C309.291 68.6156 309.21 68.7665 309.14 68.907H307.539C307.623 68.7314 307.739 68.5243 307.886 68.2855C308.034 68.0468 308.192 67.801 308.36 67.5482C308.536 67.2884 308.718 67.0321 308.908 66.7793C309.098 66.5195 309.284 66.2772 309.466 66.0525C309.15 65.6101 308.834 65.1642 308.518 64.7148C308.202 64.2584 307.89 63.809 307.581 63.3666H309.277L310.372 65.0519ZM319.771 66.1262C319.771 66.5616 319.707 66.9619 319.581 67.327C319.455 67.6851 319.272 67.9941 319.033 68.2539C318.795 68.5067 318.507 68.7033 318.17 68.8438C317.84 68.9842 317.467 69.0544 317.053 69.0544C316.646 69.0544 316.274 68.9842 315.937 68.8438C315.607 68.7033 315.322 68.5067 315.083 68.2539C314.845 67.9941 314.659 67.6851 314.525 67.327C314.392 66.9619 314.325 66.5616 314.325 66.1262C314.325 65.6909 314.392 65.2941 314.525 64.936C314.666 64.5779 314.855 64.2724 315.094 64.0196C315.34 63.7668 315.628 63.5702 315.958 63.4298C316.295 63.2893 316.66 63.2191 317.053 63.2191C317.453 63.2191 317.819 63.2893 318.149 63.4298C318.486 63.5702 318.774 63.7668 319.012 64.0196C319.251 64.2724 319.437 64.5779 319.571 64.936C319.704 65.2941 319.771 65.6909 319.771 66.1262ZM318.17 66.1262C318.17 65.6417 318.071 65.2625 317.875 64.9887C317.685 64.7078 317.411 64.5673 317.053 64.5673C316.695 64.5673 316.418 64.7078 316.221 64.9887C316.024 65.2625 315.926 65.6417 315.926 66.1262C315.926 66.6108 316.024 66.997 316.221 67.2849C316.418 67.5658 316.695 67.7062 317.053 67.7062C317.411 67.7062 317.685 67.5658 317.875 67.2849C318.071 66.997 318.17 66.6108 318.17 66.1262ZM321.302 67.6219H321.987C322.184 67.3832 322.335 67.0883 322.44 66.7372C322.552 66.379 322.63 66.0034 322.672 65.6101C322.721 65.2099 322.749 64.8131 322.756 64.4199C322.763 64.0267 322.767 63.6755 322.767 63.3666H327.085V67.6219H328.023V70.4869H326.685V68.907H322.64V70.4869H321.302V67.6219ZM325.516 67.6219V64.6516H324.231C324.217 64.8974 324.199 65.1537 324.178 65.4205C324.164 65.6803 324.132 65.9402 324.083 66.2C324.041 66.4528 323.981 66.7021 323.904 66.9478C323.827 67.1936 323.725 67.4183 323.599 67.6219H325.516ZM334.582 68.907H333.012V66.7161H331.38V68.907H329.81V63.3666H331.38V65.4311H333.012V63.3666H334.582V68.907ZM342.079 66.1262C342.079 66.5616 342.016 66.9619 341.889 67.327C341.763 67.6851 341.58 67.9941 341.342 68.2539C341.103 68.5067 340.815 68.7033 340.478 68.8438C340.148 68.9842 339.776 69.0544 339.361 69.0544C338.954 69.0544 338.582 68.9842 338.245 68.8438C337.915 68.7033 337.631 68.5067 337.392 68.2539C337.153 67.9941 336.967 67.6851 336.834 67.327C336.7 66.9619 336.633 66.5616 336.633 66.1262C336.633 65.6909 336.7 65.2941 336.834 64.936C336.974 64.5779 337.164 64.2724 337.402 64.0196C337.648 63.7668 337.936 63.5702 338.266 63.4298C338.603 63.2893 338.968 63.2191 339.361 63.2191C339.762 63.2191 340.127 63.2893 340.457 63.4298C340.794 63.5702 341.082 63.7668 341.321 64.0196C341.559 64.2724 341.745 64.5779 341.879 64.936C342.012 65.2941 342.079 65.6909 342.079 66.1262ZM340.478 66.1262C340.478 65.6417 340.38 65.2625 340.183 64.9887C339.993 64.7078 339.72 64.5673 339.361 64.5673C339.003 64.5673 338.726 64.7078 338.529 64.9887C338.333 65.2625 338.234 65.6417 338.234 66.1262C338.234 66.6108 338.333 66.997 338.529 67.2849C338.726 67.5658 339.003 67.7062 339.361 67.7062C339.72 67.7062 339.993 67.5658 340.183 67.2849C340.38 66.997 340.478 66.6108 340.478 66.1262ZM349.183 63.3666V68.907H347.603C347.603 68.5559 347.606 68.2083 347.613 67.8642C347.62 67.5131 347.627 67.1901 347.634 66.8952C347.641 66.6002 347.648 66.3439 347.655 66.1262C347.67 65.9015 347.677 65.7365 347.677 65.6312C347.473 65.9191 347.269 66.2105 347.066 66.5054C346.862 66.8004 346.665 67.0918 346.476 67.3797C346.293 67.6606 346.118 67.9309 345.949 68.1907C345.788 68.4505 345.644 68.6893 345.517 68.907H344.137V63.3666H345.707C345.707 63.7177 345.703 64.0547 345.696 64.3778C345.696 64.6937 345.693 64.9817 345.686 65.2415C345.679 65.5013 345.672 65.7295 345.665 65.9261C345.658 66.1157 345.654 66.2632 345.654 66.3685C346.076 65.7506 346.462 65.1958 346.813 64.7043C347.171 64.2127 347.519 63.7668 347.856 63.3666H349.183ZM346.686 62.6082C346.462 62.6082 346.244 62.5766 346.033 62.5134C345.83 62.4432 345.644 62.3449 345.475 62.2185C345.307 62.0851 345.166 61.9271 345.054 61.7445C344.948 61.5549 344.885 61.3407 344.864 61.102L345.949 60.8176C346.005 61.0844 346.097 61.274 346.223 61.3864C346.356 61.4987 346.511 61.5549 346.686 61.5549C346.869 61.5549 347.023 61.5057 347.15 61.4074C347.283 61.3021 347.378 61.109 347.434 60.8281L348.509 61.1125C348.488 61.3512 348.421 61.5654 348.309 61.755C348.203 61.9376 348.066 62.0921 347.898 62.2185C347.736 62.3449 347.55 62.4432 347.339 62.5134C347.129 62.5766 346.911 62.6082 346.686 62.6082Z" fill="white"/>
<path d="M1 44.1074V66.4902H72.7567" stroke="white" stroke-width="0.658318"/>
<path d="M261.035 44.1074V66.4902H189.278" stroke="white" stroke-width="0.658318"/>
<path d="M369 44.1074V66.4902H354.517" stroke="white" stroke-width="0.658318"/>
<path d="M270.91 44.1074V66.4902H285.393" stroke="white" stroke-width="0.658318"/>
</svg>
