<svg width="20" height="21" viewBox="0 0 20 21" fill="none" xmlns="http://www.w3.org/2000/svg">
<path fill-rule="evenodd" clip-rule="evenodd" d="M4.89062 10.4959C4.89062 10.3338 4.95501 10.1784 5.06961 10.0638C5.18421 9.94918 5.33964 9.8848 5.50171 9.8848H12.5817L9.95773 7.26203C9.84298 7.14729 9.77852 6.99166 9.77852 6.82938C9.77852 6.66711 9.84298 6.51148 9.95773 6.39674C10.0725 6.28199 10.2281 6.21753 10.3904 6.21753C10.5526 6.21753 10.7083 6.28199 10.823 6.39674L14.4895 10.0632C14.5464 10.12 14.5916 10.1874 14.6224 10.2617C14.6532 10.3359 14.669 10.4155 14.669 10.4959C14.669 10.5763 14.6532 10.6558 14.6224 10.7301C14.5916 10.8043 14.5464 10.8718 14.4895 10.9285L10.823 14.595C10.7083 14.7098 10.5526 14.7742 10.3904 14.7742C10.2281 14.7742 10.0725 14.7098 9.95773 14.595C9.84298 14.4803 9.77852 14.3246 9.77852 14.1624C9.77852 14.0001 9.84298 13.8445 9.95773 13.7297L12.5817 11.107H5.50171C5.33964 11.107 5.18421 11.0426 5.06961 10.928C4.95501 10.8134 4.89062 10.6579 4.89062 10.4959Z" fill="#1C1512"/>
</svg>
