<svg width="24" height="27" viewBox="0 0 24 27" fill="none" xmlns="http://www.w3.org/2000/svg">
<path d="M12 0.25C14.9837 0.25 17.8452 1.43526 19.955 3.54505C22.0647 5.65483 23.25 8.51631 23.25 11.5C23.25 16.1575 19.7 21.0375 12.75 26.25C12.5336 26.4123 12.2705 26.5 12 26.5C11.7295 26.5 11.4664 26.4123 11.25 26.25C4.3 21.0375 0.75 16.1575 0.75 11.5C0.75 8.51631 1.93526 5.65483 4.04505 3.54505C6.15483 1.43526 9.01631 0.25 12 0.25ZM12 2.75C9.67936 2.75 7.45376 3.67187 5.81282 5.31282C4.17187 6.95376 3.25 9.17936 3.25 11.5C3.25 14.8875 5.8975 18.795 11.31 23.1325L12 23.6775L12.69 23.1325C18.1025 18.795 20.75 14.8875 20.75 11.5C20.75 9.17936 19.8281 6.95376 18.1872 5.31282C16.5462 3.67187 14.3206 2.75 12 2.75ZM12 9C12.663 9 13.2989 9.26339 13.7678 9.73223C14.2366 10.2011 14.5 10.837 14.5 11.5C14.5 12.163 14.2366 12.7989 13.7678 13.2678C13.2989 13.7366 12.663 14 12 14C11.337 14 10.7011 13.7366 10.2322 13.2678C9.76339 12.7989 9.5 12.163 9.5 11.5C9.5 10.837 9.76339 10.2011 10.2322 9.73223C10.7011 9.26339 11.337 9 12 9Z" fill="white"/>
</svg>
