<svg width="22" height="18" viewBox="0 0 22 18" fill="none" xmlns="http://www.w3.org/2000/svg">
<path d="M0.5 5.5665V14.25C0.5 15.1783 0.868749 16.0685 1.52513 16.7249C2.1815 17.3813 3.07174 17.75 4 17.75H18C18.9283 17.75 19.8185 17.3813 20.4749 16.7249C21.1313 16.0685 21.5 15.1783 21.5 14.25V3.75C21.5 2.82174 21.1313 1.9315 20.4749 1.27513C19.8185 0.618749 18.9283 0.25 18 0.25H4C3.07174 0.25 2.1815 0.618749 1.52513 1.27513C0.868749 1.9315 0.5 2.82174 0.5 3.75V5.5665ZM4 2H18C18.4641 2 18.9092 2.18437 19.2374 2.51256C19.5656 2.84075 19.75 3.28587 19.75 3.75V5.045L11 9.756L2.25 5.045V3.75C2.25 3.28587 2.43437 2.84075 2.76256 2.51256C3.09075 2.18437 3.53587 2 4 2ZM2.25 7.033L10.5852 11.52C10.7127 11.5886 10.8552 11.6245 11 11.6245C11.1448 11.6245 11.2873 11.5886 11.4148 11.52L19.75 7.033V14.25C19.75 14.7141 19.5656 15.1592 19.2374 15.4874C18.9092 15.8156 18.4641 16 18 16H4C3.53587 16 3.09075 15.8156 2.76256 15.4874C2.43437 15.1592 2.25 14.7141 2.25 14.25V7.033Z" fill="white"/>
</svg>
