<svg width="22" height="23" viewBox="0 0 22 23" fill="none" xmlns="http://www.w3.org/2000/svg">
<path d="M9.67536 5.98007L6.57428 2.23778C6.21678 1.80653 5.56136 1.80844 5.14611 2.24353L2.59595 4.9144C1.83695 5.70886 1.6197 6.88857 2.05878 7.83444C4.68193 13.5125 9.06215 18.0983 14.4897 20.8486C15.3935 21.3076 16.521 21.0805 17.28 20.2861L19.854 17.5903C20.2711 17.1542 20.272 16.4652 19.8559 16.0914L16.2625 12.8666C15.8867 12.5293 15.3028 12.5734 14.926 12.9682L13.6757 14.2773C13.6117 14.3475 13.5274 14.3937 13.4359 14.4089C13.3443 14.4242 13.2505 14.4075 13.1688 14.3616C11.125 13.1312 9.42969 11.3565 8.25545 9.21828C8.21147 9.13274 8.19555 9.03449 8.21012 8.93859C8.22469 8.84269 8.26895 8.75443 8.33611 8.68736L9.58278 7.38307C9.96045 6.98632 10.0017 6.37298 9.67536 5.97911V5.98007Z" stroke="#1C1512" stroke-width="2.5" stroke-linecap="round" stroke-linejoin="round"/>
</svg>
