<svg width="24" height="24" viewBox="0 0 24 24" fill="none" xmlns="http://www.w3.org/2000/svg">
<path d="M10.4331 5.75995L6.76818 1.52953C6.34568 1.04203 5.5711 1.0442 5.08035 1.53603L2.06652 4.55528C1.16952 5.45337 0.912767 6.78695 1.43168 7.8562C4.53177 14.2749 9.7084 19.4588 16.1228 22.5679C17.1909 23.0868 18.5234 22.83 19.4204 21.9319L22.4624 18.8845C22.9554 18.3916 22.9564 17.6127 22.4646 17.1902L18.2179 13.5448C17.7738 13.1634 17.0837 13.2133 16.6384 13.6596L15.1608 15.1394C15.0851 15.2187 14.9855 15.271 14.8773 15.2882C14.7691 15.3054 14.6582 15.2867 14.5617 15.2348C12.1463 13.8439 10.1428 11.8377 8.75502 9.42053C8.70305 9.32385 8.68423 9.21278 8.70145 9.10437C8.71867 8.99596 8.77098 8.89619 8.85035 8.82037L10.3237 7.34595C10.77 6.89745 10.8188 6.20412 10.4331 5.75887V5.75995Z" stroke="white" stroke-width="2" stroke-linecap="round" stroke-linejoin="round"/>
</svg>
