<svg width="24" height="24" viewBox="0 0 24 24" fill="none" xmlns="http://www.w3.org/2000/svg">
<g clip-path="url(#clip0_408:70)">
<path d="M11.8533 0.170654C8.63658 0.170654 8.23209 0.185471 6.96823 0.241774C5.70438 0.30104 4.84354 0.499582 4.08937 0.79295C3.29831 1.0905 2.58178 1.55723 1.98987 2.16052C1.38694 2.75273 0.920268 3.46918 0.622296 4.26003C0.328928 5.01271 0.128904 5.87503 0.0711195 7.13444C0.0148166 8.40126 0 8.80427 0 12.0254C0 15.2436 0.0148166 15.6466 0.0711195 16.9104C0.130386 18.1728 0.328928 19.0336 0.622296 19.7878C0.926036 20.5671 1.33053 21.228 1.98987 21.8873C2.64772 22.5466 3.30854 22.9526 4.08789 23.2549C4.84354 23.5482 5.7029 23.7483 6.96527 23.806C8.23061 23.8624 8.63362 23.8772 11.8533 23.8772C15.0729 23.8772 15.4744 23.8624 16.7398 23.806C18.0007 23.7468 18.8645 23.5482 19.6186 23.2549C20.4092 22.9572 21.1252 22.4905 21.7166 21.8873C22.376 21.228 22.7805 20.5671 23.0842 19.7878C23.3761 19.0336 23.5761 18.1728 23.6354 16.9104C23.6917 15.6466 23.7065 15.2436 23.7065 12.0239C23.7065 8.80427 23.6917 8.40126 23.6354 7.13592C23.5761 5.87503 23.3761 5.01271 23.0842 4.26003C22.7863 3.46916 22.3196 2.7527 21.7166 2.16052C21.1249 1.557 20.4083 1.09024 19.6171 0.79295C18.8615 0.499582 17.9992 0.299558 16.7383 0.241774C15.4729 0.185471 15.0714 0.170654 11.8503 0.170654H11.8547H11.8533ZM10.7909 2.3072H11.8547C15.0196 2.3072 15.3944 2.31758 16.6435 2.37536C17.7991 2.42722 18.4274 2.62132 18.8452 2.78282C19.3979 2.99766 19.7935 3.25546 20.2083 3.67033C20.6232 4.08519 20.8795 4.47931 21.0944 5.03345C21.2573 5.4498 21.45 6.07802 21.5018 7.23371C21.5596 8.48275 21.5714 8.85761 21.5714 12.0209C21.5714 15.1843 21.5596 15.5606 21.5018 16.8097C21.45 17.9654 21.2559 18.5921 21.0944 19.0099C20.9043 19.5246 20.601 19.9899 20.2068 20.3716C19.792 20.7864 19.3979 21.0428 18.8437 21.2576C18.4289 21.4206 17.8006 21.6132 16.6435 21.6665C15.3944 21.7228 15.0196 21.7362 11.8547 21.7362C8.68992 21.7362 8.31358 21.7228 7.06454 21.6665C5.90885 21.6132 5.28211 21.4206 4.86428 21.2576C4.3494 21.0678 3.88361 20.7651 3.50116 20.3716C3.10667 19.9893 2.80288 19.5236 2.61216 19.0084C2.45066 18.5921 2.25656 17.9639 2.20471 16.8082C2.1484 15.5591 2.13655 15.1843 2.13655 12.018C2.13655 8.85316 2.1484 8.47979 2.20471 7.23075C2.25805 6.07506 2.45066 5.44684 2.61364 5.02901C2.82848 4.47635 3.08629 4.08075 3.50116 3.66588C3.91602 3.25102 4.31014 2.99469 4.86428 2.77985C5.28211 2.61687 5.90885 2.42425 7.06454 2.37092C8.158 2.32054 8.58176 2.30572 10.7909 2.30424V2.3072ZM18.1814 4.27484C17.9946 4.27484 17.8097 4.31164 17.6371 4.38312C17.4645 4.4546 17.3077 4.55937 17.1756 4.69145C17.0436 4.82353 16.9388 4.98034 16.8673 5.15291C16.7958 5.32548 16.759 5.51044 16.759 5.69724C16.759 5.88403 16.7958 6.06899 16.8673 6.24156C16.9388 6.41413 17.0436 6.57094 17.1756 6.70302C17.3077 6.8351 17.4645 6.93987 17.6371 7.01135C17.8097 7.08284 17.9946 7.11963 18.1814 7.11963C18.5587 7.11963 18.9204 6.96977 19.1872 6.70302C19.4539 6.43627 19.6038 6.07448 19.6038 5.69724C19.6038 5.31999 19.4539 4.9582 19.1872 4.69145C18.9204 4.4247 18.5587 4.27484 18.1814 4.27484ZM11.8547 5.93726C11.0473 5.92467 10.2455 6.07281 9.49591 6.37308C8.74631 6.67335 8.06394 7.11973 7.48852 7.68625C6.9131 8.25276 6.45612 8.92809 6.1442 9.67291C5.83227 10.4177 5.67164 11.2172 5.67164 12.0247C5.67164 12.8321 5.83227 13.6316 6.1442 14.3764C6.45612 15.1212 6.9131 15.7965 7.48852 16.3631C8.06394 16.9296 8.74631 17.376 9.49591 17.6762C10.2455 17.9765 11.0473 18.1246 11.8547 18.112C13.4528 18.0871 14.9769 17.4348 16.0982 16.2959C17.2194 15.157 17.8479 13.6229 17.8479 12.0247C17.8479 10.4264 17.2194 8.8923 16.0982 7.7534C14.9769 6.61451 13.4528 5.9622 11.8547 5.93726ZM11.8547 8.07233C12.9028 8.07233 13.9079 8.48866 14.6489 9.22972C15.39 9.97079 15.8063 10.9759 15.8063 12.0239C15.8063 13.0719 15.39 14.077 14.6489 14.8181C13.9079 15.5592 12.9028 15.9755 11.8547 15.9755C10.8067 15.9755 9.80161 15.5592 9.06055 14.8181C8.31948 14.077 7.90316 13.0719 7.90316 12.0239C7.90316 10.9759 8.31948 9.97079 9.06055 9.22972C9.80161 8.48866 10.8067 8.07233 11.8547 8.07233Z" fill="white"/>
</g>
<defs>
<clipPath id="clip0_408:70">
<rect width="23.7065" height="23.7065" fill="white" transform="translate(0 0.170654)"/>
</clipPath>
</defs>
</svg>
