<svg width="34" height="34" viewBox="0 0 34 34" fill="none" xmlns="http://www.w3.org/2000/svg">
<path d="M33.495 6.99415C32.312 7.51832 31.0413 7.87249 29.7054 8.03257C31.0838 7.20777 32.115 5.90965 32.6067 4.3804C31.3117 5.14964 29.8943 5.69109 28.4162 5.98124C27.4222 4.91996 26.1057 4.21653 24.671 3.98016C23.2363 3.74378 21.7637 3.98769 20.4818 4.67401C19.1999 5.36033 18.1805 6.45066 17.5818 7.77573C16.983 9.1008 16.8385 10.5865 17.1707 12.0021C14.5466 11.8703 11.9795 11.1883 9.63606 10.0002C7.2926 8.8121 5.22515 7.14455 3.56787 5.10574C3.00121 6.08324 2.67537 7.21657 2.67537 8.42357C2.67474 9.51015 2.94232 10.5801 3.45437 11.5384C3.96642 12.4968 4.7071 13.314 5.61071 13.9174C4.56277 13.8841 3.53795 13.6009 2.62154 13.0915V13.1765C2.62144 14.7005 3.14859 16.1775 4.11355 17.3571C5.07851 18.5366 6.42185 19.346 7.91563 19.6478C6.94348 19.9109 5.92427 19.9497 4.93496 19.7612C5.35641 21.0724 6.17737 22.2191 7.2829 23.0406C8.38842 23.8622 9.72317 24.3174 11.1003 24.3427C8.76256 26.1778 5.87547 27.1733 2.90346 27.1689C2.377 27.169 1.85098 27.1383 1.32812 27.0768C4.34488 29.0165 7.85661 30.0459 11.4431 30.0419C23.584 30.0419 30.221 19.9864 30.221 11.2654C30.221 10.9821 30.214 10.6959 30.2012 10.4126C31.4922 9.47895 32.6066 8.32284 33.4921 6.9984L33.495 6.99415Z" fill="white"/>
</svg>
