<svg width="27" height="27" viewBox="0 0 27 27" fill="none" xmlns="http://www.w3.org/2000/svg">
<g clip-path="url(#clip0_408:73)">
<path fill-rule="evenodd" clip-rule="evenodd" d="M26.025 7.03998C26.2083 6.43721 26.025 5.99341 25.1474 5.99341H22.2494C21.512 5.99341 21.1719 6.37649 20.9876 6.79931C20.9876 6.79931 19.5138 10.3276 17.4261 12.6195C16.7505 13.2841 16.4436 13.495 16.0749 13.495C15.8905 13.495 15.6134 13.2841 15.6134 12.6802V7.03998C15.6134 6.31577 15.4103 5.99341 14.7965 5.99341H10.2392C9.77888 5.99341 9.50178 6.32902 9.50178 6.64807C9.50178 7.33364 10.5461 7.49261 10.6532 9.42237V13.6153C10.6532 14.5349 10.4843 14.7016 10.1156 14.7016C9.13305 14.7016 6.74293 11.1567 5.32432 7.1007C5.04943 6.31135 4.77123 5.99341 4.03046 5.99341H1.1303C0.302316 5.99341 0.136719 6.37649 0.136719 6.79931C0.136719 7.55223 1.11926 11.2925 4.71272 16.2394C7.10835 19.6176 10.481 21.4491 13.5534 21.4491C15.3959 21.4491 15.6233 21.0429 15.6233 20.3418V17.7883C15.6233 16.9747 15.7978 16.8124 16.3818 16.8124C16.8123 16.8124 17.5487 17.0244 19.2687 18.6527C21.2338 20.5836 21.5572 21.4491 22.6634 21.4491H25.5614C26.3894 21.4491 26.8045 21.0429 26.566 20.2392C26.3032 19.4399 25.3649 18.2796 24.1207 16.9029C23.445 16.1191 22.4316 15.2746 22.1236 14.8517C21.6941 14.3097 21.8167 14.0679 22.1236 13.5855C22.1236 13.5855 25.6563 8.69926 26.0239 7.03998H26.025Z" fill="white"/>
</g>
<defs>
<clipPath id="clip0_408:73">
<rect width="26.4955" height="26.4955" fill="white" transform="translate(0.136719 0.473389)"/>
</clipPath>
</defs>
</svg>
